Note: Thanks to original rippers & uploaders.

Complete name                            : K:Good PacksUndisputed CollectionUndisputed.I.2002.720p.BluRay.x264-APAX.mkv
Format                                   : Matroska
Format version                           : Version 2
File size                                : 4.36 GiB
Duration                                 : 1h 33mn
Overall bit rate                         : 6 680 Kbps
Encoded date                             : UTC 2010-12-15 01:11:23
Writing application                      : mkvmerge v4.0.0 ('The Stars were mine') built on Jun  6 2010 16:18:42
Writing library                          : libebml v1.0.0 + libmatroska v1.0.0

Video
ID                                       : 1
Format                                   : AVC
Format/Info                              : Advanced Video Codec
Format profile                           : High@L3.1
Format settings, CABAC                   : Yes
Format settings, ReFrames                : 5 frames
Codec ID                                 : V_MPEG4/ISO/AVC
Duration                                 : 1h 33mn
Bit rate                                 : 5 180 Kbps
Width                                    : 1 280 pixels
Height                                   : 688 pixels
Display aspect ratio                     : 1.860
Frame rate                               : 24.000 fps
Color space                              : YUV
Chroma subsampling                       : 4:2:0
Bit depth                                : 8 bits
Scan type                                : Progressive
Bits/(Pixel*Frame)                       : 0.245
Stream size                              : 3.29 GiB (75%)
Writing library                          : x264 core 98 r1649 c54c47d

Language                                 : English
Default                                  : No
Forced                                   : No

Audio
ID                                       : 2
Format                                   : DTS
Format/Info                              : Digital Theater Systems
Codec ID                                 : A_DTS
Duration                                 : 1h 33mn
Bit rate mode                            : Constant
Bit rate                                 : 1 510 Kbps
Channel(s)                               : 6 channels
Channel positions                        : Front: L C R, Side: L R, LFE
Sampling rate                            : 48.0 KHz
Bit depth                                : 16 bits
Compression mode                         : Lossy
Stream size                              : 1 009 MiB (23%)
Language                                 : English
Default                                  : Yes
Forced                                   : No
